<svg aria-hidden="true" style="position:absolute;width:0;height:0" xmlns="http://www.w3.org/2000/svg" overflow="hidden">
  <defs>
    <symbol id="menu-top" viewBox="0 0 40 40">
      <path d="M5 14.1667H35M5 25.8334H35" stroke="#0C0C0C" stroke-width="3" stroke-linecap="round" stroke-linejoin="round"/>
    </symbol>
    <symbol id="menu-close" viewBox="0 0 40 40">
      <path d="M30 10L10 30" stroke="#FBFBFB" stroke-width="3" stroke-linecap="round" stroke-linejoin="round"/>
      <path d="M10 10L30 30" stroke="#FBFBFB" stroke-width="3" stroke-linecap="round" stroke-linejoin="round"/>
    </symbol>
    <symbol id="facebook" viewBox="0 0 6 15">
      <path d="M5.2 0.900098C5.35 0.900098 5.5 0.900098 5.8 0.900098V3.1501C5.65 3.1501 5.35 3.1501 5.05 3.1501C4.75 3.1501 4.45 3.1501 4.3 3.3001C4.15 3.4501 4.14999 3.6001 4.14999 3.9501C4.14999 4.2501 4.14999 4.4501 4.14999 4.7501H5.8V6.6501H4.14999V14.9001H1.60001V6.6001H0.25V4.7001H1.60001V4.0501C1.60001 2.9501 1.75 2.1501 2.05 1.8001C2.5 1.1501 3.4 0.850098 4.75 0.850098C4.9 0.900098 5.05 0.900098 5.2 0.900098Z"/>
    </symbol>
    <symbol id="instagram" viewBox="0 0 16 16">
      <path d="M15.9485 4.72248C15.9387 4.051 15.8143 3.38485 15.5762 2.75685C15.1595 1.68444 14.311 0.836457 13.2368 0.421333C12.6157 0.188048 11.9591 0.0629782 11.2945 0.048786C10.4398 0.0106443 10.1688 0 7.99911 0C5.82941 0 5.55131 5.94791e-08 4.7028 0.048786C4.03909 0.0629782 3.3825 0.188048 2.76144 0.421333C1.68725 0.836457 0.83785 1.68444 0.422035 2.75685C0.188361 3.37687 0.0621946 4.03238 0.0497557 4.69498C0.0115504 5.54917 0 5.81972 0 7.98581C0 10.1519 -6.6198e-09 10.4287 0.0497557 11.2766C0.0630831 11.9401 0.188361 12.5947 0.422035 13.2165C0.838738 14.2881 1.68725 15.136 2.76233 15.5512C3.38072 15.7924 4.03732 15.929 4.70369 15.9503C5.55931 15.9885 5.8303 16 8 16C10.1697 16 10.4478 16 11.2963 15.9503C11.96 15.937 12.6166 15.812 13.2386 15.5787C14.3127 15.1627 15.1613 14.3147 15.578 13.2432C15.8116 12.6222 15.9369 11.9676 15.9502 11.3033C15.9884 10.4499 16 10.1794 16 8.01242C15.9982 5.84633 15.9982 5.57135 15.9485 4.72248ZM7.99378 12.0821C5.72457 12.0821 3.88627 10.2468 3.88627 7.98137C3.88627 5.71593 5.72457 3.8807 7.99378 3.8807C10.2612 3.8807 12.1013 5.71593 12.1013 7.98137C12.1013 10.2468 10.2612 12.0821 7.99378 12.0821ZM12.2648 4.68522C11.7343 4.68522 11.307 4.25768 11.307 3.72902C11.307 3.20036 11.7343 2.77281 12.2648 2.77281C12.7934 2.77281 13.2217 3.20036 13.2217 3.72902C13.2217 4.25768 12.7934 4.68522 12.2648 4.68522Z"/>
    </symbol>
    <symbol id="youtube" viewBox="0 0 19 14">
      <path fill-rule="evenodd" clip-rule="evenodd" d="M14.1499 0.749902C13.2999 0.699902 11.5499 0.649902 8.8999 0.649902H8.5499C5.9999 0.649902 4.29992 0.699902 3.44992 0.799902C2.29992 0.899902 1.4999 1.1999 1.0499 1.5999C0.649896 1.9499 0.349908 2.5999 0.249908 3.4499C0.199908 3.9999 0.149902 5.1499 0.149902 6.8999V7.1499C0.149902 8.7999 0.199896 9.9499 0.299896 10.4999C0.449896 11.2999 0.699921 11.8999 1.19992 12.2499C1.69992 12.6499 2.54991 12.8999 3.74991 12.9999C4.59991 13.0499 6.34991 13.0999 8.99991 13.0999H9.34991C11.8999 13.0999 13.5999 13.0499 14.4499 12.9499C15.5999 12.8499 16.3999 12.5499 16.8499 12.1499C17.2499 11.7999 17.5499 11.1499 17.6499 10.2999C17.6999 9.7499 17.7499 8.5999 17.7499 6.8499V6.5999C17.7499 4.9499 17.6999 3.7999 17.5999 3.2499C17.4499 2.4499 17.1999 1.8499 16.6999 1.4999C16.1999 1.0999 15.3499 0.849902 14.1499 0.749902ZM12.1999 6.8999L6.69992 10.1999V3.5999L12.1999 6.8999Z"/>
    </symbol>
  </defs>
</svg>