<svg aria-hidden="true" style="position:absolute;width:0;height:0" xmlns="http://www.w3.org/2000/svg" overflow="hidden">
  <defs>
    <symbol id="menu-top" viewBox="0 0 40 40">
      <path d="M5 14.1667H35M5 25.8334H35" stroke="#0C0C0C" stroke-width="3" stroke-linecap="round" stroke-linejoin="round"/>
    </symbol>
    <symbol id="menu-close" viewBox="0 0 40 40">
      <path d="M30 10L10 30" stroke="#FBFBFB" stroke-width="3" stroke-linecap="round" stroke-linejoin="round"/>
      <path d="M10 10L30 30" stroke="#FBFBFB" stroke-width="3" stroke-linecap="round" stroke-linejoin="round"/>
    </symbol>
    <symbol id="facebook" viewBox="0 0 6 15">
      <path d="M5.2 0.900098C5.35 0.900098 5.5 0.900098 5.8 0.900098V3.1501C5.65 3.1501 5.35 3.1501 5.05 3.1501C4.75 3.1501 4.45 3.1501 4.3 3.3001C4.15 3.4501 4.14999 3.6001 4.14999 3.9501C4.14999 4.2501 4.14999 4.4501 4.14999 4.7501H5.8V6.6501H4.14999V14.9001H1.60001V6.6001H0.25V4.7001H1.60001V4.0501C1.60001 2.9501 1.75 2.1501 2.05 1.8001C2.5 1.1501 3.4 0.850098 4.75 0.850098C4.9 0.900098 5.05 0.900098 5.2 0.900098Z"/>
    </symbol>
    <symbol id="instagram" viewBox="0 0 20 20">
      <path d="M17.9485 6.72248C17.9387 6.051 17.8143 5.38485 17.5762 4.75685C17.1595 3.68444 16.311 2.83646 15.2368 2.42133C14.6157 2.18805 13.9591 2.06298 13.2945 2.04879C12.4398 2.01064 12.1688 2 9.99911 2C7.82941 2 7.55131 2 6.7028 2.04879C6.03909 2.06298 5.3825 2.18805 4.76144 2.42133C3.68725 2.83646 2.83785 3.68444 2.42203 4.75685C2.18836 5.37687 2.06219 6.03238 2.04976 6.69498C2.01155 7.54917 2 7.81972 2 9.98581C2 12.1519 2 12.4287 2.04976 13.2766C2.06308 13.9401 2.18836 14.5947 2.42203 15.2165C2.83874 16.2881 3.68725 17.136 4.76233 17.5512C5.38072 17.7924 6.03732 17.929 6.70369 17.9503C7.55931 17.9885 7.8303 18 10 18C12.1697 18 12.4478 18 13.2963 17.9503C13.96 17.937 14.6166 17.812 15.2386 17.5787C16.3127 17.1627 17.1613 16.3147 17.578 15.2432C17.8116 14.6222 17.9369 13.9676 17.9502 13.3033C17.9884 12.4499 18 12.1794 18 10.0124C17.9982 7.84633 17.9982 7.57135 17.9485 6.72248ZM9.99378 14.0821C7.72457 14.0821 5.88627 12.2468 5.88627 9.98137C5.88627 7.71593 7.72457 5.8807 9.99378 5.8807C12.2612 5.8807 14.1013 7.71593 14.1013 9.98137C14.1013 12.2468 12.2612 14.0821 9.99378 14.0821ZM14.2648 6.68522C13.7343 6.68522 13.307 6.25768 13.307 5.72902C13.307 5.20036 13.7343 4.77281 14.2648 4.77281C14.7934 4.77281 15.2217 5.20036 15.2217 5.72902C15.2217 6.25768 14.7934 6.68522 14.2648 6.68522Z"/>
      <path d="M9.99518 12.485C11.3773 12.485 12.4977 11.3646 12.4977 9.98248C12.4977 8.60039 11.3773 7.47998 9.99518 7.47998C8.61308 7.47998 7.49268 8.60039 7.49268 9.98248C7.49268 11.3646 8.61308 12.485 9.99518 12.485Z"/>
    </symbol>
    <symbol id="youtube" viewBox="0 0 19 14">
      <path fill-rule="evenodd" clip-rule="evenodd" d="M14.1499 0.749902C13.2999 0.699902 11.5499 0.649902 8.8999 0.649902H8.5499C5.9999 0.649902 4.29992 0.699902 3.44992 0.799902C2.29992 0.899902 1.4999 1.1999 1.0499 1.5999C0.649896 1.9499 0.349908 2.5999 0.249908 3.4499C0.199908 3.9999 0.149902 5.1499 0.149902 6.8999V7.1499C0.149902 8.7999 0.199896 9.9499 0.299896 10.4999C0.449896 11.2999 0.699921 11.8999 1.19992 12.2499C1.69992 12.6499 2.54991 12.8999 3.74991 12.9999C4.59991 13.0499 6.34991 13.0999 8.99991 13.0999H9.34991C11.8999 13.0999 13.5999 13.0499 14.4499 12.9499C15.5999 12.8499 16.3999 12.5499 16.8499 12.1499C17.2499 11.7999 17.5499 11.1499 17.6499 10.2999C17.6999 9.7499 17.7499 8.5999 17.7499 6.8499V6.5999C17.7499 4.9499 17.6999 3.7999 17.5999 3.2499C17.4499 2.4499 17.1999 1.8499 16.6999 1.4999C16.1999 1.0999 15.3499 0.849902 14.1499 0.749902ZM12.1999 6.8999L6.69992 10.1999V3.5999L12.1999 6.8999Z"/>
    </symbol>
  </defs>
</svg>